<!-- decided not to use -->


<svg xmlns="http://www.w3.org/2000/svg" xmlns:xlink="http://www.w3.org/1999/xlink" width="43" height="38" viewBox="0 0 43 38">
  <defs>
    <clipPath id="clip-path">
      <rect id="Rectangle_2" data-name="Rectangle 2" width="43" height="38" transform="translate(27.221 699.213)" stroke="#707070" stroke-width="1"/>
    </clipPath>
  </defs>
  <g id="Mask_Group_1" data-name="Mask Group 1" transform="translate(-27.221 -699.213)" clip-path="url(#clip-path)">
    <g id="Instagram" transform="translate(29.442 699.162)">
      <path id="Path_4" data-name="Path 4" d="M61.473,49.562a9.718,9.718,0,1,0,6.872,2.846,9.718,9.718,0,0,0-6.872-2.846Zm0,16.029a6.313,6.313,0,1,1,4.464-1.849,6.314,6.314,0,0,1-4.464,1.849Z" transform="translate(-42.561 -40.373)"/>
      <path id="Path_5" data-name="Path 5" d="M145.72,40.392a2.266,2.266,0,1,0-2.266-2.266A2.266,2.266,0,0,0,145.72,40.392Z" transform="translate(-116.705 -29.295)"/>
      <path id="Path_6" data-name="Path 6" d="M40.572,8.093a9.678,9.678,0,0,0-5.534-5.532,13.884,13.884,0,0,0-4.594-.883c-2.024-.088-2.665-.113-7.8-.113s-5.79,0-7.8.113a13.774,13.774,0,0,0-4.59.883A9.668,9.668,0,0,0,4.726,8.093a13.839,13.839,0,0,0-.881,4.594c-.09,2.022-.118,2.663-.118,7.8s0,5.786.118,7.8a13.862,13.862,0,0,0,.881,4.6,9.69,9.69,0,0,0,5.536,5.532,13.839,13.839,0,0,0,4.592.946c2.024.088,2.665.116,7.8.116s5.79,0,7.8-.116a13.9,13.9,0,0,0,4.594-.881,9.7,9.7,0,0,0,5.534-5.534,13.837,13.837,0,0,0,.881-4.594c.09-2.022.118-2.663.118-7.8s0-5.786-.118-7.8a13.829,13.829,0,0,0-.885-4.659Zm-2.56,20.033a10.6,10.6,0,0,1-.654,3.548,6.277,6.277,0,0,1-3.6,3.6,10.479,10.479,0,0,1-3.51.654c-2,.092-2.56.116-7.679.116s-5.647,0-7.682-.116a10.428,10.428,0,0,1-3.508-.654,6.274,6.274,0,0,1-3.613-3.6,10.676,10.676,0,0,1-.654-3.508c-.09-2-.111-2.56-.111-7.679s0-5.645.111-7.682A10.588,10.588,0,0,1,7.77,9.26a6.276,6.276,0,0,1,3.613-3.6,10.529,10.529,0,0,1,3.508-.654c2-.09,2.56-.116,7.682-.116s5.647,0,7.679.116a10.424,10.424,0,0,1,3.51.654,6.286,6.286,0,0,1,3.6,3.6,10.672,10.672,0,0,1,.654,3.508c.09,2,.113,2.56.113,7.682s0,5.67-.09,7.68h-.023Z" transform="translate(-3.728 -1.565)"/>
    </g>
  </g>
</svg>
