<!-- decided not to use -->



<svg xmlns="http://www.w3.org/2000/svg" width="40.4" height="40.4" viewBox="0 0 40.4 40.4">
  <g id="Twitter" transform="translate(-0.631 -0.005)">
    <path id="Path_15" data-name="Path 15" d="M39.831,20.2a19,19,0,1,1-19-19A19,19,0,0,1,39.831,20.2Z" transform="translate(0)" fill="none" stroke="#000" stroke-width="2.4"/>
    <path id="Path_16" data-name="Path 16" d="M13.785,23.711a10.876,10.876,0,0,0,10.95-10.95c0-.168,0-.335-.008-.495a7.887,7.887,0,0,0,1.924-2,7.811,7.811,0,0,1-2.211.607,3.847,3.847,0,0,0,1.692-2.131,7.793,7.793,0,0,1-2.442.934,3.851,3.851,0,0,0-6.656,2.634,3.525,3.525,0,0,0,.1.878A10.918,10.918,0,0,1,9.2,9.169,3.847,3.847,0,0,0,10.4,14.3a3.781,3.781,0,0,1-1.74-.479v.048a3.853,3.853,0,0,0,3.089,3.775,3.839,3.839,0,0,1-1.014.136,3.665,3.665,0,0,1-.726-.072A3.843,3.843,0,0,0,13.6,20.383,7.737,7.737,0,0,1,8.82,22.027a7,7,0,0,1-.918-.056A10.722,10.722,0,0,0,13.785,23.711Z" transform="translate(4.193 5.015)" fill="#050505"/>
  </g>
</svg>


